<?xml version="1.0" encoding="utf-8"?>
<!-- Generator: Adobe Illustrator 28.0.0, SVG Export Plug-In . SVG Version: 6.00 Build 0)  -->
<svg version="1.1"
	 id="Layer_1" xmlns:inkscape="http://www.inkscape.org/namespaces/inkscape" xmlns:rdf="http://www.w3.org/1999/02/22-rdf-syntax-ns#" xmlns:dc="http://purl.org/dc/elements/1.1/" xmlns:cc="http://creativecommons.org/ns#" xmlns:svg="http://www.w3.org/2000/svg"
	 xmlns="http://www.w3.org/2000/svg" xmlns:xlink="http://www.w3.org/1999/xlink" x="0px" y="0px" viewBox="0 0 772.7 746.4"
	 style="enable-background:new 0 0 772.7 746.4;" xml:space="preserve">
<style type="text/css">
	.st0{fill:none;stroke:#000000;stroke-width:0.5669;stroke-linecap:round;stroke-linejoin:round;stroke-miterlimit:11.3386;}
	.st1{fill:#FFFFFF;stroke:#000000;stroke-width:9.344161e-03;stroke-miterlimit:10;}
	.st2{fill:#FFFFFF;stroke:#000000;stroke-width:1.000000e-02;stroke-miterlimit:10;}
	.st3{fill:#FFFFFF;stroke:#000000;stroke-width:1.007836e-02;stroke-miterlimit:10;}
	.st4{fill:#FFFFFF;stroke:#000000;stroke-width:5.115862e-03;stroke-miterlimit:10;}
</style>
<g id="p-1">
	<path class="st0" d="M61.8,684.9H93c0.2,0,0.3-0.1,0.3-0.3v-8.2c0-0.3-0.3,0,0,0h16.4c0.3,0,0-0.3,0,0v8.2c0,0.2,0.1,0.3,0.3,0.3
		h17c0.2,0,0.3-0.1,0.3-0.3v-8.2c0-0.3-0.3,0,0,0h16.4c0.3,0,0-0.3,0,0v8.2c0,0.2,0.1,0.3,0.3,0.3h17c0.2,0,0.3-0.1,0.3-0.3v-8.2
		c0-0.3-0.3,0,0,0h16.4c0.3,0,0-0.3,0,0v8.2c0,0.2,0.1,0.3,0.3,0.3h17c0.2,0,0.3-0.1,0.3-0.3v-8.2c0-0.3-0.3,0,0,0h16.4
		c0.3,0,0-0.3,0,0v8.2c0,0.2,0.1,0.3,0.3,0.3h17c0.2,0,0.3-0.1,0.3-0.3v-8.2c0-0.3-0.3,0,0,0h16.4c0.3,0,0-0.3,0,0v8.2
		c0,0.2,0.1,0.3,0.3,0.3h17c0.2,0,0.3-0.1,0.3-0.3v-8.2c0-0.3-0.3,0,0,0h16.4c0.3,0,0-0.3,0,0v8.2c0,0.2,0.1,0.3,0.3,0.3h17
		c0.2,0,0.3-0.1,0.3-0.3v-8.2c0-0.3-0.3,0,0,0h16.4c0.3,0,0-0.3,0,0v8.2c0,0.2,0.1,0.3,0.3,0.3h31.2h8.5c0.2,0,0.3-0.1,0.3-0.3v-8.5
		v-31.2c0-0.2-0.1-0.3-0.3-0.3h-8.2c-0.3,0,0,0.3,0,0v-16.4c0-0.3-0.3,0,0,0h8.2c0.2,0,0.3-0.1,0.3-0.3v-17c0-0.2-0.1-0.3-0.3-0.3
		h-8.2c-0.3,0,0,0.3,0,0v-16.4c0-0.3-0.3,0,0,0h8.2c0.2,0,0.3-0.1,0.3-0.3v-31.2v-8.5c0-0.2-0.1-0.3-0.3-0.3h-8.5h-31.2
		c-0.2,0-0.3,0.1-0.3,0.3v8.2c0,0.3,0.3,0,0,0h-16.4c-0.3,0,0,0.3,0,0v-8.2c0-0.2-0.1-0.3-0.3-0.3h-17c-0.2,0-0.3,0.1-0.3,0.3v8.2
		c0,0.3,0.3,0,0,0h-16.4c-0.3,0,0,0.3,0,0v-8.2c0-0.2-0.1-0.3-0.3-0.3h-17c-0.2,0-0.3,0.1-0.3,0.3v8.2c0,0.3,0.3,0,0,0h-16.4
		c-0.3,0,0,0.3,0,0v-8.2c0-0.2-0.1-0.3-0.3-0.3h-17c-0.2,0-0.3,0.1-0.3,0.3v8.2c0,0.3,0.3,0,0,0h-16.4c-0.3,0,0,0.3,0,0v-8.2
		c0-0.2-0.1-0.3-0.3-0.3h-17c-0.2,0-0.3,0.1-0.3,0.3v8.2c0,0.3,0.3,0,0,0h-16.4c-0.3,0,0,0.3,0,0v-8.2c0-0.2-0.1-0.3-0.3-0.3h-17
		c-0.2,0-0.3,0.1-0.3,0.3v8.2c0,0.3,0.3,0,0,0h-16.4c-0.3,0,0,0.3,0,0v-8.2c0-0.2-0.1-0.3-0.3-0.3h-17c-0.2,0-0.3,0.1-0.3,0.3v8.2
		c0,0.3,0.3,0,0,0H93.3c-0.3,0,0,0.3,0,0v-8.2c0-0.2-0.1-0.3-0.3-0.3H61.8h-8.5c-0.2,0-0.3,0.1-0.3,0.3v8.5v31.2
		c0,0.2,0.1,0.3,0.3,0.3h8.2c0.3,0,0-0.3,0,0v16.4c0,0.3,0.3,0,0,0h-8.2c-0.2,0-0.3,0.1-0.3,0.3v17c0,0.2,0.1,0.3,0.3,0.3h8.2
		c0.3,0,0-0.3,0,0v16.4c0,0.3,0.3,0,0,0h-8.2c-0.2,0-0.3,0.1-0.3,0.3v31.2v8.5c0,0.2,0.1,0.3,0.3,0.3H61.8"/>
</g>
<g id="p-2">
	<path class="st0" d="M367.1,684.9h22.7c0.2,0,0.3-0.1,0.3-0.3v-8.2c0-0.3-0.3,0,0,0h16.4c0.3,0,0-0.3,0,0v8.2
		c0,0.2,0.1,0.3,0.3,0.3h17c0.2,0,0.3-0.1,0.3-0.3v-8.2c0-0.3-0.3,0,0,0h16.4c0.3,0,0-0.3,0,0v8.2c0,0.2,0.1,0.3,0.3,0.3h17
		c0.2,0,0.3-0.1,0.3-0.3v-8.2c0-0.3-0.3,0,0,0h16.4c0.3,0,0-0.3,0,0v8.2c0,0.2,0.1,0.3,0.3,0.3h17c0.2,0,0.3-0.1,0.3-0.3v-8.2
		c0-0.3-0.3,0,0,0h16.4c0.3,0,0-0.3,0,0v8.2c0,0.2,0.1,0.3,0.3,0.3h17c0.2,0,0.3-0.1,0.3-0.3v-8.2c0-0.3-0.3,0,0,0h16.4
		c0.3,0,0-0.3,0,0v8.2c0,0.2,0.1,0.3,0.3,0.3h17c0.2,0,0.3-0.1,0.3-0.3v-8.2c0-0.3-0.3,0,0,0h16.4c0.3,0,0-0.3,0,0v8.2
		c0,0.2,0.1,0.3,0.3,0.3h17c0.2,0,0.3-0.1,0.3-0.3v-8.2c0-0.3-0.3,0,0,0h16.4c0.3,0,0-0.3,0,0v8.2c0,0.2,0.1,0.3,0.3,0.3h17
		c0.2,0,0.3-0.1,0.3-0.3v-8.2c0-0.3-0.3,0,0,0h16.4c0.3,0,0-0.3,0,0v8.2c0,0.2,0.1,0.3,0.3,0.3h17c0.2,0,0.3-0.1,0.3-0.3v-8.2
		c0-0.3-0.3,0,0,0h16.4c0.3,0,0-0.3,0,0v8.2c0,0.2,0.1,0.3,0.3,0.3h17c0.2,0,0.3-0.1,0.3-0.3v-8.2c0-0.3-0.3,0,0,0h16.4
		c0.3,0,0-0.3,0,0v8.2c0,0.2,0.1,0.3,0.3,0.3h22.7c0.2,0,0.3-0.1,0.3-0.3v-8.5v-30.9c0-0.3-0.3,0,0,0h8.2c0.2,0,0.3-0.1,0.3-0.3v-17
		c0-0.2-0.1-0.3-0.3-0.3h-8.2c-0.3,0,0,0.3,0,0v-16.4c0-0.3-0.3,0,0,0h8.2c0.2,0,0.3-0.1,0.3-0.3v-17c0-0.2-0.1-0.3-0.3-0.3h-8.2
		c-0.3,0,0,0.3,0,0v-30.9v-8.5c0-0.2-0.1-0.3-0.3-0.3h-22.7c-0.2,0-0.3,0.1-0.3,0.3v8.2c0,0.3,0.3,0,0,0h-16.4c-0.3,0,0,0.3,0,0
		v-8.2c0-0.2-0.1-0.3-0.3-0.3h-17c-0.2,0-0.3,0.1-0.3,0.3v8.2c0,0.3,0.3,0,0,0h-16.4c-0.3,0,0,0.3,0,0v-8.2c0-0.2-0.1-0.3-0.3-0.3
		h-17c-0.2,0-0.3,0.1-0.3,0.3v8.2c0,0.3,0.3,0,0,0h-16.4c-0.3,0,0,0.3,0,0v-8.2c0-0.2-0.1-0.3-0.3-0.3h-17c-0.2,0-0.3,0.1-0.3,0.3
		v8.2c0,0.3,0.3,0,0,0h-16.4c-0.3,0,0,0.3,0,0v-8.2c0-0.2-0.1-0.3-0.3-0.3h-17c-0.2,0-0.3,0.1-0.3,0.3v8.2c0,0.3,0.3,0,0,0h-16.4
		c-0.3,0,0,0.3,0,0v-8.2c0-0.2-0.1-0.3-0.3-0.3h-17c-0.2,0-0.3,0.1-0.3,0.3v8.2c0,0.3,0.3,0,0,0h-16.4c-0.3,0,0,0.3,0,0v-8.2
		c0-0.2-0.1-0.3-0.3-0.3h-17c-0.2,0-0.3,0.1-0.3,0.3v8.2c0,0.3,0.3,0,0,0h-16.4c-0.3,0,0,0.3,0,0v-8.2c0-0.2-0.1-0.3-0.3-0.3h-17
		c-0.2,0-0.3,0.1-0.3,0.3v8.2c0,0.3,0.3,0,0,0h-16.4c-0.3,0,0,0.3,0,0v-8.2c0-0.2-0.1-0.3-0.3-0.3h-17c-0.2,0-0.3,0.1-0.3,0.3v8.2
		c0,0.3,0.3,0,0,0h-16.4c-0.3,0,0,0.3,0,0v-8.2c0-0.2-0.1-0.3-0.3-0.3h-17c-0.2,0-0.3,0.1-0.3,0.3v8.2c0,0.3,0.3,0,0,0H390
		c-0.3,0,0,0.3,0,0v-8.2c0-0.2-0.1-0.3-0.3-0.3h-22.7c-0.2,0-0.3,0.1-0.3,0.3v8.5v30.9c0,0.3,0.3,0,0,0h-8.2c-0.2,0-0.3,0.1-0.3,0.3
		v17c0,0.2,0.1,0.3,0.3,0.3h8.2c0.3,0,0-0.3,0,0v16.4c0,0.3,0.3,0,0,0h-8.2c-0.2,0-0.3,0.1-0.3,0.3v17c0,0.2,0.1,0.3,0.3,0.3h8.2
		c0.3,0,0-0.3,0,0v30.9v8.5C366.8,684.7,366.9,684.9,367.1,684.9"/>
</g>
<g id="p-3">
	<path class="st0" d="M440.6,439.7c0,0.3,0.2-12.5-0.1-12.5h-16.4c-0.3,0,0,0.3,0,0V419c0-0.2-0.1-0.3-0.3-0.3h-17
		c-0.2,0-0.3,0.1-0.3,0.3v8.2c0,0.3,0.3,0,0,0H390c-0.3,0,0,0.3,0,0V419c0-0.2-0.1-0.3-0.3-0.3h-22.7c-0.2,0-0.3,0.1-0.3,0.3v8.5
		v30.9c0,0.3,0.3,0,0,0h-8.2c-0.2,0-0.3,0.1-0.3,0.3v17c0,0.2,0.1,0.3,0.3,0.3h8.2c0.3,0,0-0.3,0,0v16.4c0,0.3,0.3,0,0,0h-8.2
		c-0.2,0-0.3,0.1-0.3,0.3v17c0,0.2,0.1,0.3,0.3,0.3h8.2c0.3,0,0-0.3,0,0v30.9v8.5c0,0.2,0.1,0.3,0.3,0.3"/>
	<path class="st0" d="M367.1,549.6h22.7c0.2,0,0.3-0.1,0.3-0.3v-8.2c0-0.3-0.3,0,0,0h16.4c0.3,0,0-0.3,0,0v8.2
		c0,0.2,0.1,0.3,0.3,0.3h17c0.2,0,0.3-0.1,0.3-0.3v-8.2c0-0.3-0.3,0,0,0h16.4c0.3,0,0-0.3,0,0v8.2c0,0.2,0.1,0.3,0.3,0.3h17
		c0.2,0,0.3-0.1,0.3-0.3v-8.2c0-0.3-0.3,0,0,0h16.4c0.3,0,0-0.3,0,0v8.2c0,0.2,0.1,0.3,0.3,0.3h17c0.2,0,0.3-0.1,0.3-0.3v-8.2
		c0-0.3-0.3,0,0,0h16.4c0.3,0,0-0.3,0,0v8.2c0,0.2,0.1,0.3,0.3,0.3h17c0.2,0,0.3-0.1,0.3-0.3v-8.2c0-0.3-0.3,0,0,0h16.4
		c0.3,0,0-0.3,0,0v8.2c0,0.2,0.1,0.3,0.3,0.3h17c0.2,0,0.3-0.1,0.3-0.3v-8.2c0-0.3-0.3,0,0,0h16.4c0.3,0,0-0.3,0,0v8.2
		c0,0.2,0.1,0.3,0.3,0.3h17c0.2,0,0.3-0.1,0.3-0.3v-8.2c0-0.3-0.3,0,0,0h16.4c0.3,0,0-0.3,0,0v8.2c0,0.2,0.1,0.3,0.3,0.3h17
		c0.2,0,0.3-0.1,0.3-0.3v-8.2c0-0.3-0.3,0,0,0h16.4c0.3,0,0-0.3,0,0v8.2c0,0.2,0.1,0.3,0.3,0.3h17c0.2,0,0.3-0.1,0.3-0.3v-8.2
		c0-0.3-0.3,0,0,0h16.4c0.3,0,0-0.3,0,0v8.2c0,0.2,0.1,0.3,0.3,0.3h17c0.2,0,0.3-0.1,0.3-0.3v-8.2c0-0.3-0.3,0,0,0h16.4
		c0.3,0,0-0.3,0,0v8.2c0,0.2,0.1,0.3,0.3,0.3h22.7c0.2,0,0.3-0.1,0.3-0.3v-8.5V510c0-0.3-0.3,0,0,0h8.2c0.2,0,0.3-0.1,0.3-0.3v-17
		c0-0.2-0.1-0.3-0.3-0.3h-8.2c-0.3,0,0,0.3,0,0v-16.4c0-0.3-0.3,0,0,0h8.2c0.2,0,0.3-0.1,0.3-0.3v-17c0-0.2-0.1-0.3-0.3-0.3h-8.2
		c-0.3,0,0,0.3,0,0v-30.9V419c0-0.2-0.1-0.3-0.3-0.3h-22.7c-0.2,0-0.3,0.1-0.3,0.3v8.2c0,0.3,0.3,0,0,0h-16.4c-0.3,0,0,0.3,0,0V419
		c0-0.2-0.1-0.3-0.3-0.3h-17c-0.2,0-0.3,0.1-0.3,0.3v8.2c0,0.3,0.3,0,0,0h-16.4c-0.3,0,0,0.3,0,0V419c0-0.2-0.1-0.3-0.3-0.3h-17
		c-0.2,0-0.3,0.1-0.3,0.3v8.2c0,0.3,0.3,0,0,0h-16.4c-0.3,0,0,0.3,0,0V419c0-0.2-0.1-0.3-0.3-0.3h-17c-0.2,0-0.3,0.1-0.3,0.3v8.2
		c0,0.3,0.3,0,0,0h-16.4c-0.3,0,0,0.3,0,0V419c0-0.2-0.1-0.3-0.3-0.3h-17c-0.2,0-0.3,0.1-0.3,0.3v8.2c0,0.3,0.3,0,0,0h-16.4
		c-0.3,0,0,0.3,0,0V419c0-0.2-0.1-0.3-0.3-0.3h-17c-0.2,0-0.3,0.1-0.3,0.3v8.2c0,0.3,0.3,0,0,0h-16.4c-0.3,0,0,0.3,0,0V419
		c0-0.2-0.1-0.3-0.3-0.3h-17c-0.2,0-0.3,0.1-0.3,0.3v8.2c0,0.3,0.3,0,0,0h-16.4c-0.3,0-0.2,12.8-0.2,12.5"/>
</g>
<g id="p-4">
	<path class="st0" d="M61.8,549.6H93c0.2,0,0.3-0.1,0.3-0.3v-8.2c0-0.3-0.3,0,0,0h16.4c0.3,0,0-0.3,0,0v8.2c0,0.2,0.1,0.3,0.3,0.3
		h17c0.2,0,0.3-0.1,0.3-0.3v-8.2c0-0.3-0.3,0,0,0h16.4c0.3,0,0-0.3,0,0v8.2c0,0.2,0.1,0.3,0.3,0.3h17c0.2,0,0.3-0.1,0.3-0.3v-8.2
		c0-0.3-0.3,0,0,0h16.4c0.3,0,0-0.3,0,0v8.2c0,0.2,0.1,0.3,0.3,0.3h17c0.2,0,0.3-0.1,0.3-0.3v-8.2c0-0.3-0.3,0,0,0h16.4
		c0.3,0,0-0.3,0,0v8.2c0,0.2,0.1,0.3,0.3,0.3h17c0.2,0,0.3-0.1,0.3-0.3v-8.2c0-0.3-0.3,0,0,0h16.4c0.3,0,0-0.3,0,0v8.2
		c0,0.2,0.1,0.3,0.3,0.3h17c0.2,0,0.3-0.1,0.3-0.3v-8.2c0-0.3-0.3,0,0,0h16.4c0.3,0,0-0.3,0,0v8.2c0,0.2,0.1,0.3,0.3,0.3h17
		c0.2,0,0.3-0.1,0.3-0.3v-8.2c0-0.3-0.3,0,0,0h16.4c0.3,0,0-0.3,0,0v8.2c0,0.2,0.1,0.3,0.3,0.3h31.2h8.5c0.2,0,0.3-0.1,0.3-0.3v-8.5
		v-31.2c0-0.2-0.1-0.3-0.3-0.3h-8.2c-0.3,0,0,0.3,0,0v-16.4c0-0.3-0.3,0,0,0h8.2c0.2,0,0.3-0.1,0.3-0.3v-17c0-0.2-0.1-0.3-0.3-0.3
		h-8.2c-0.3,0,0,0.3,0,0v-16.4c0-0.3-0.3,0,0,0h8.2c0.2,0,0.3-0.1,0.3-0.3v-31.2V419c0-0.2-0.1-0.3-0.3-0.3h-8.5h-31.2
		c-0.2,0-0.3,0.1-0.3,0.3v8.2c0,0.3,0.3,0,0,0h-16.4c-0.3,0,0,0.3,0,0V419c0-0.2-0.1-0.3-0.3-0.3h-17c-0.2,0-0.3,0.1-0.3,0.3v8.2
		c0,0.3,0.3,0,0,0h-16.4c-0.3,0,0,0.3,0,0V419c0-0.2-0.1-0.3-0.3-0.3h-17c-0.2,0-0.3,0.1-0.3,0.3v8.2c0,0.3,0.3,0,0,0h-16.4
		c-0.3,0,0,0.3,0,0V419c0-0.2-0.1-0.3-0.3-0.3h-17c-0.2,0-0.3,0.1-0.3,0.3v8.2c0,0.3,0.3,0,0,0h-16.4c-0.3,0,0,0.3,0,0V419
		c0-0.2-0.1-0.3-0.3-0.3h-17c-0.2,0-0.3,0.1-0.3,0.3v8.2c0,0.3,0.3,0,0,0h-16.4c-0.3,0,0,0.3,0,0V419c0-0.2-0.1-0.3-0.3-0.3h-17
		c-0.2,0-0.3,0.1-0.3,0.3v8.2c0,0.3,0.3,0,0,0h-16.4c-0.3,0,0,0.3,0,0V419c0-0.2-0.1-0.3-0.3-0.3h-17c-0.2,0-0.3,0.1-0.3,0.3v8.2
		c0,0.3,0.3,0,0,0H93.3c-0.3,0,0,0.3,0,0V419c0-0.2-0.1-0.3-0.3-0.3H61.8h-8.5c-0.2,0-0.3,0.1-0.3,0.3v8.5v31.2
		c0,0.2,0.1,0.3,0.3,0.3h8.2c0.3,0,0-0.3,0,0v16.4c0,0.3,0.3,0,0,0h-8.2c-0.2,0-0.3,0.1-0.3,0.3v17c0,0.2,0.1,0.3,0.3,0.3h8.2
		c0.3,0,0-0.3,0,0v16.4c0,0.3,0.3,0,0,0h-8.2c-0.2,0-0.3,0.1-0.3,0.3v31.2v8.5c0,0.2,0.1,0.3,0.3,0.3H61.8"/>
</g>
<g id="p-5">
	<path class="st0" d="M87.6,161.6H53.3c-0.2,0-0.3,0.1-0.3,0.3v17c0,0.2,0.1,0.3,0.3,0.3h8.2c0.3,0,0-0.3,0,0v16.4c0,0.3,0.3,0,0,0
		h-8.2c-0.2,0-0.3,0.1-0.3,0.3v17c0,0.2,0.1,0.3,0.3,0.3h8.2c0.3,0,0-0.3,0,0v16.4c0,0.3,0.3,0,0,0h-8.2c-0.2,0-0.3,0.1-0.3,0.3v17
		c0,0.2,0.1,0.3,0.3,0.3h8.2c0.3,0,0-0.3,0,0v16.4c0,0.3,0.3,0,0,0h-8.2c-0.2,0-0.3,0.1-0.3,0.3v17c0,0.2,0.1,0.3,0.3,0.3h8.2
		c0.3,0,0-0.3,0,0v16.4c0,0.3,0.3,0,0,0h-8.2c-0.2,0-0.3,0.1-0.3,0.3v17c0,0.2,0.1,0.3,0.3,0.3h8.2c0.3,0,0-0.3,0,0v16.4
		c0,0.3,0.3,0,0,0h-8.2c-0.2,0-0.3,0.1-0.3,0.3v17c0,0.2,0.1,0.3,0.3,0.3h8.2c0.3,0,0-0.3,0,0v16.4c0,0.3,0.3,0,0,0h-8.2
		c-0.2,0-0.3,0.1-0.3,0.3v17c0,0.2,0.1,0.3,0.3,0.3h8.2c0.3,0,0-0.3,0,0v22.4c0,0.2,0.1,0.3,0.3,0.3"/>
	<path class="st0" d="M61.8,405.9h30.9c0.3,0,0-0.3,0,0v8.2c0,0.2,0.1,0.3,0.3,0.3h17c0.2,0,0.3-0.1,0.3-0.3v-8.2c0-0.3-0.3,0,0,0
		h16.4c0.3,0,0-0.3,0,0v8.2c0,0.2,0.1,0.3,0.3,0.3h17c0.2,0,0.3-0.1,0.3-0.3v-8.2c0-0.3-0.3,0,0,0h16.4c0.3,0,0-0.3,0,0v8.2
		c0,0.2,0.1,0.3,0.3,0.3h17c0.2,0,0.3-0.1,0.3-0.3v-8.2c0-0.3-0.3,0,0,0h16.4c0.3,0,0-0.3,0,0v8.2c0,0.2,0.1,0.3,0.3,0.3h17
		c0.2,0,0.3-0.1,0.3-0.3v-8.2c0-0.3-0.3,0,0,0h16.4c0.3,0,0-0.3,0,0v8.2c0,0.2,0.1,0.3,0.3,0.3h17c0.2,0,0.3-0.1,0.3-0.3v-8.2
		c0-0.3-0.3,0,0,0h16.4c0.3,0,0-0.3,0,0v8.2c0,0.2,0.1,0.3,0.3,0.3h17c0.2,0,0.3-0.1,0.3-0.3v-8.2c0-0.3-0.3,0,0,0h16.4
		c0.3,0,0-0.3,0,0v8.2c0,0.2,0.1,0.3,0.3,0.3h17c0.2,0,0.3-0.1,0.3-0.3v-8.2c0-0.3-0.3,0,0,0h30.9c0.2,0,0.3-0.1,0.3-0.3v-22.4
		c0-0.3-0.3,0,0,0h8.2c0.2,0,0.3-0.1,0.3-0.3v-17c0-0.2-0.1-0.3-0.3-0.3h-8.2c-0.3,0,0,0.3,0,0v-16.4c0-0.3-0.3,0,0,0h8.2
		c0.2,0,0.3-0.1,0.3-0.3v-17c0-0.2-0.1-0.3-0.3-0.3h-8.2c-0.3,0,0,0.3,0,0v-16.4c0-0.3-0.3,0,0,0h8.2c0.2,0,0.3-0.1,0.3-0.3v-17
		c0-0.2-0.1-0.3-0.3-0.3h-8.2c-0.3,0,0,0.3,0,0v-16.4c0-0.3-0.3,0,0,0h8.2c0.2,0,0.3-0.1,0.3-0.3v-17c0-0.2-0.1-0.3-0.3-0.3h-8.2
		c-0.3,0,0,0.3,0,0v-16.4c0-0.3-0.3,0,0,0h8.2c0.2,0,0.3-0.1,0.3-0.3v-17c0-0.2-0.1-0.3-0.3-0.3h-8.2c-0.3,0,0,0.3,0,0v-16.4
		c0-0.3-0.3,0,0,0h8.2c0.2,0,0.3-0.1,0.3-0.3v-17c0-0.2-0.1-0.3-0.3-0.3h-8.2c-0.3,0,0,0.3,0,0v-16.4c0-0.3-0.3,0,0,0h8.2
		c0.2,0,0.3-0.1,0.3-0.3v-17c0-0.2-0.1-0.3-0.3-0.3h-8.2c-0.3,0,0,0.3,0,0v-16.4c0-0.3-0.3,0,0,0h8.2c0.2,0,0.3-0.1,0.3-0.3v-17
		c0-0.2-0.1-0.3-0.3-0.3h-8.2c-0.3,0,0,0.3,0,0v-16.4c0-0.3-0.3,0,0,0h8.2c0.2,0,0.3-0.1,0.3-0.3v-17c0-0.2-0.1-0.3-0.3-0.3h-8.2
		c-0.3,0,0,0.3,0,0V77.1c0-0.3-0.3,0,0,0h8.2c0.2,0,0.3-0.1,0.3-0.3v-17c0-0.2-0.1-0.3-0.3-0.3h-8.2c-0.3,0,0,0.3,0,0V37.1
		c0-0.2-0.1-0.3-0.3-0.3h-30.9c-0.3,0,0,0.3,0,0v-8.2c0-0.2-0.1-0.3-0.3-0.3h-17c-0.2,0-0.3,0.1-0.3,0.3v8.2c0,0.3,0.3,0,0,0h-16.4
		c-0.3,0,0,0.3,0,0v-8.2c0-0.2-0.1-0.3-0.3-0.3h-17c-0.2,0-0.3,0.1-0.3,0.3v8.2c0,0.3,0.3,0,0,0h-16.4c-0.3,0,0,0.3,0,0v-8.2
		c0-0.2-0.1-0.3-0.3-0.3h-17c-0.2,0-0.3,0.1-0.3,0.3v8.2c0,0.3,0.3,0,0,0h-16.4c-0.3,0,0,0.3,0,0v-8.2c0-0.2-0.1-0.3-0.3-0.3h-17
		c-0.2,0-0.3,0.1-0.3,0.3v8.2c0,0.3,0.3,0,0,0h-16.4c-0.3,0,0,0.3,0,0v-8.2c0-0.2-0.1-0.3-0.3-0.3h-17c-0.2,0-0.3,0.1-0.3,0.3v8.2
		c0,0.3,0.3,0,0,0h-16.4c-0.3,0,0,0.3,0,0v-8.2c0-0.2-0.1-0.3-0.3-0.3h-17c-0.2,0-0.3,0.1-0.3,0.3v8.2c0,0.3,0.3,0,0,0h-16.4
		c-0.3,0,0,0.3,0,0v-8.2c0-0.2-0.1-0.3-0.3-0.3H93c-0.2,0-0.3,0.1-0.3,0.3v8.2c0,0.3,0.3,0,0,0H61.8c-0.2,0-0.3,0.1-0.3,0.3v22.4
		c0,0.3,0.3,0,0,0h-8.2c-0.2,0-0.3,0.1-0.3,0.3v17c0,0.2,0.1,0.3,0.3,0.3h8.2c0.3,0,0-0.3,0,0v16.4c0,0.3,0.3,0,0,0h-8.2
		c-0.2,0-0.3,0.1-0.3,0.3v17c0,0.2,0.1,0.3,0.3,0.3h34.3c11,0.1-26.1-0.3-26.1,0"/>
</g>
<g id="p-6">
	<path class="st0" d="M367.1,405.9H398c0.3,0,0-0.3,0,0v8.2c0,0.2,0.1,0.3,0.3,0.3h17c0.2,0,0.3-0.1,0.3-0.3v-8.2c0-0.3-0.3,0,0,0
		H432c0.3,0,0-0.3,0,0v8.2c0,0.2,0.1,0.3,0.3,0.3h17c0.2,0,0.3-0.1,0.3-0.3v-8.2c0-0.3-0.3,0,0,0H466c0.3,0,0-0.3,0,0v8.2
		c0,0.2,0.1,0.3,0.3,0.3h17c0.2,0,0.3-0.1,0.3-0.3v-8.2c0-0.3-0.3,0,0,0H500c0.3,0,0-0.3,0,0v8.2c0,0.2,0.1,0.3,0.3,0.3h17
		c0.2,0,0.3-0.1,0.3-0.3v-8.2c0-0.3-0.3,0,0,0H534c0.3,0,0-0.3,0,0v8.2c0,0.2,0.1,0.3,0.3,0.3h17c0.2,0,0.3-0.1,0.3-0.3v-8.2
		c0-0.3-0.3,0,0,0h16.4c0.3,0,0-0.3,0,0v8.2c0,0.2,0.1,0.3,0.3,0.3h17c0.2,0,0.3-0.1,0.3-0.3v-8.2c0-0.3-0.3,0,0,0h16.4
		c0.3,0,0-0.3,0,0v8.2c0,0.2,0.1,0.3,0.3,0.3h17c0.2,0,0.3-0.1,0.3-0.3v-8.2c0-0.3-0.3,0,0,0h30.9c0.2,0,0.3-0.1,0.3-0.3v-22.4
		c0-0.3-0.3,0,0,0h8.2c0.2,0,0.3-0.1,0.3-0.3v-17c0-0.2-0.1-0.3-0.3-0.3h-8.2c-0.3,0,0,0.3,0,0v-16.4c0-0.3-0.3,0,0,0h8.2
		c0.2,0,0.3-0.1,0.3-0.3v-17c0-0.2-0.1-0.3-0.3-0.3h-8.2c-0.3,0,0,0.3,0,0v-16.4c0-0.3-0.3,0,0,0h8.2c0.2,0,0.3-0.1,0.3-0.3v-17
		c0-0.2-0.1-0.3-0.3-0.3h-8.2c-0.3,0,0,0.3,0,0v-16.4c0-0.3-0.3,0,0,0h8.2c0.2,0,0.3-0.1,0.3-0.3v-17c0-0.2-0.1-0.3-0.3-0.3h-8.2
		c-0.3,0,0,0.3,0,0v-16.4c0-0.3-0.3,0,0,0h8.2c0.2,0,0.3-0.1,0.3-0.3v-17c0-0.2-0.1-0.3-0.3-0.3h-8.2c-0.3,0,0,0.3,0,0v-16.4
		c0-0.3-0.3,0,0,0h8.2c0.2,0,0.3-0.1,0.3-0.3v-17c0-0.2-0.1-0.3-0.3-0.3h-8.2c-0.3,0,0,0.3,0,0v-16.4c0-0.3-0.3,0,0,0h8.2
		c0.2,0,0.3-0.1,0.3-0.3v-17c0-0.2-0.1-0.3-0.3-0.3h-8.2c-0.3,0,0,0.3,0,0v-16.4c0-0.3-0.3,0,0,0h8.2c0.2,0,0.3-0.1,0.3-0.3v-17
		c0-0.2-0.1-0.3-0.3-0.3h-8.2c-0.3,0,0,0.3,0,0v-16.4c0-0.3-0.3,0,0,0h8.2c0.2,0,0.3-0.1,0.3-0.3v-17c0-0.2-0.1-0.3-0.3-0.3h-8.2
		c-0.3,0,0,0.3,0,0V77.1c0-0.3-0.3,0,0,0h8.2c0.2,0,0.3-0.1,0.3-0.3v-17c0-0.2-0.1-0.3-0.3-0.3h-8.2c-0.3,0,0,0.3,0,0V37.1
		c0-0.2-0.1-0.3-0.3-0.3h-30.9c-0.3,0,0,0.3,0,0v-8.2c0-0.2-0.1-0.3-0.3-0.3h-17c-0.2,0-0.3,0.1-0.3,0.3v8.2c0,0.3,0.3,0,0,0h-16.4
		c-0.3,0,0,0.3,0,0v-8.2c0-0.2-0.1-0.3-0.3-0.3h-17c-0.2,0-0.3,0.1-0.3,0.3v8.2c0,0.3,0.3,0,0,0h-16.4c-0.3,0,0,0.3,0,0v-8.2
		c0-0.2-0.1-0.3-0.3-0.3h-17c-0.2,0-0.3,0.1-0.3,0.3v8.2c0,0.3,0.3,0,0,0h-16.4c-0.3,0,0,0.3,0,0v-8.2c0-0.2-0.1-0.3-0.3-0.3h-17
		c-0.2,0-0.3,0.1-0.3,0.3v8.2c0,0.3,0.3,0,0,0h-16.4c-0.3,0,0,0.3,0,0v-8.2c0-0.2-0.1-0.3-0.3-0.3h-17c-0.2,0-0.3,0.1-0.3,0.3v8.2
		c0,0.3,0.3,0,0,0h-16.4c-0.3,0,0,0.3,0,0v-8.2c0-0.2-0.1-0.3-0.3-0.3h-17c-0.2,0-0.3,0.1-0.3,0.3v8.2c0,0.3,0.3,0,0,0h-16.4
		c-0.3,0,0,0.3,0,0v-8.2c0-0.2-0.1-0.3-0.3-0.3h-17c-0.2,0-0.3,0.1-0.3,0.3v8.2c0,0.3,0.3,0,0,0h-30.9c-0.2,0-0.3,0.1-0.3,0.3v22.4
		c0,0.3,0.3,0,0,0h-8.2c-0.2,0-0.3,0.1-0.3,0.3v17c0,0.2,0.1,0.3,0.3,0.3h8.2c0.3,0,0-0.3,0,0v16.4c0,0.3,0.3,0,0,0h-8.2
		c-0.2,0-0.3,0.1-0.3,0.3v17c0,0.2,0.1,0.3,0.3,0.3h8.2c0.3,0,0-0.3,0,0v16.4c0,0.3,0.3,0,0,0h-8.2c-0.2,0-0.3,0.1-0.3,0.3v17
		c0,0.2,0.1,0.3,0.3,0.3h8.2c0.3,0,0-0.3,0,0v16.4c0,0.3,0.3,0,0,0h-8.2c-0.2,0-0.3,0.1-0.3,0.3v17c0,0.2,0.1,0.3,0.3,0.3h8.2
		c0.3,0,0-0.3,0,0v16.4c0,0.3,0.3,0,0,0h-8.2c-0.2,0-0.3,0.1-0.3,0.3v17c0,0.2,0.1,0.3,0.3,0.3h8.2c0.3,0,0-0.3,0,0v16.4
		c0,0.3,0.3,0,0,0h-8.2c-0.2,0-0.3,0.1-0.3,0.3v17c0,0.2,0.1,0.3,0.3,0.3h8.2c0.3,0,0-0.3,0,0v16.4c0,0.3,0.3,0,0,0h-8.2
		c-0.2,0-0.3,0.1-0.3,0.3v17c0,0.2,0.1,0.3,0.3,0.3h8.2c0.3,0,0-0.3,0,0v16.4c0,0.3,0.3,0,0,0h-8.2c-0.2,0-0.3,0.1-0.3,0.3v17
		c0,0.2,0.1,0.3,0.3,0.3h8.2c0.3,0,0-0.3,0,0v16.4c0,0.3,0.3,0,0,0h-8.2c-0.2,0-0.3,0.1-0.3,0.3v17c0,0.2,0.1,0.3,0.3,0.3h8.2
		c0.3,0,0-0.3,0,0v16.4c0,0.3,0.3,0,0,0h-8.2c-0.2,0-0.3,0.1-0.3,0.3v17c0,0.2,0.1,0.3,0.3,0.3h8.2c0.3,0,0-0.3,0,0v22.4
		C366.8,405.8,366.9,405.9,367.1,405.9"/>
</g>
<rect x="87.6" y="108.2" class="st1" width="113.4" height="65.6"/>
<circle class="st2" cx="268.1" cy="248.5" r="8.5"/>
<rect x="96.2" y="277.5" class="st3" width="172.9" height="41.4"/>
<circle class="st2" cx="139.7" cy="248.3" r="8.5"/>
<circle class="st2" cx="183.1" cy="248.5" r="8.5"/>
<circle class="st2" cx="226.1" cy="248.5" r="8.5"/>
<polygon class="st4" points="496.6,470.6 436.9,470.6 436.9,439.7 440.6,439.7 496.6,439.7 "/>
</svg>
